# xmcd CD database file
#
# Track frame offsets:
#	183
#	12380
#	25595
#	47655
#	67215
#	82055
#	112445
#	130108
#	147273
#	180638
#	194785
#	210123
#	224770
#	239870
#	265968
#	280065
#
# Disc length: 3963 seconds
#
# Revision: 0
# Processed by: cddbd v1.4PL0 Copyright (c) Steve Scherf et al.
# Submitted via: CDex 1.40Beta8
#
DISCID=050f7910
DTITLE=Le Blues - Volume II 1953/1991
DYEAR=1992
DGENRE=Blues
TTITLE0=Guitar Lovin' Man/John Lee Hooker
TTITLE1=Hard Times/Ray Charles
TTITLE2=Empty Bed Blues/Lavern Baker
TTITLE3=Last Night/Paul Butterfield Blues Band
TTITLE4=I'm In The Mood/John Hammond
TTITLE5=Mt. Healthy Blues/Lonnie Mack
TTITLE6=Show-Biz Blues/Fleetwood Mac
TTITLE7=The Things That I Used To Do/Freddie King
TTITLE8=Since I've Been Loving You/Led Zeppelin
TTITLE9=This Old Fool/Buddy Guy and Junior Wells
TTITLE10=Women Be Wise/Sippie Wallace
TTITLE11=Hard Times/Eric Clapton
TTITLE12=Key To The Highway/Johnnie Johnson
TTITLE13=Love Is A Hurtin' Thing/Doug MacLeod
TTITLE14=Ways/Marc Cohn
TTITLE15=Person to Person/John Campbell
EXTD=YEAR: 1992 ID3G: 0
EXTT0=
EXTT1=
EXTT2=
EXTT3=
EXTT4=
EXTT5=
EXTT6=
EXTT7=
EXTT8=
EXTT9=
EXTT10=
EXTT11=
EXTT12=
EXTT13=
EXTT14=
EXTT15=
PLAYORDER=
